HIERARCHY
ROOT ZeroOut_JNT
{
  OFFSET 0 0 0
  CHANNELS 6 Xposition Yposition Zposition Zrotation Xrotation Yrotation
  JOINT SpineFinal_1_JNT
  {
    OFFSET 0 59.8141 -42.9993
    CHANNELS 6 Xposition Yposition Zposition Zrotation Xrotation Yrotation
    JOINT l_legIKClavicle_Root_JNT
    {
      OFFSET -0.323145 -1.55994 9.59625
      CHANNELS 6 Xposition Yposition Zposition Zrotation Xrotation Yrotation
      JOINT l_legBlendRoot_JNT
      {
        OFFSET 16.1374 0 0
        CHANNELS 6 Xposition Yposition Zposition Zrotation Xrotation Yrotation
        JOINT l_legBlendMiddle_JNT
        {
          OFFSET 27.0969 0 0
          CHANNELS 6 Xposition Yposition Zposition Zrotation Xrotation Yrotation
          JOINT l_legBlendEnd_JNT
          {
            OFFSET 24.8414 0 0
            CHANNELS 6 Xposition Yposition Zposition Zrotation Xrotation Yrotation
            JOINT l_legBlendTip_JNT
            {
              OFFSET 6.77858 0 0
              CHANNELS 6 Xposition Yposition Zposition Zrotation Xrotation Yrotation
              End Site
              {
                OFFSET 0 0 0
              }
            }
          }
        }
      }
    }
    JOINT SpineFinal_2_JNT
    {
      OFFSET -19.5366 0.0587492 -0.00256357
      CHANNELS 6 Xposition Yposition Zposition Zrotation Xrotation Yrotation
      JOINT SpineFinal_3_JNT
      {
        OFFSET -19.4679 1.47333 -0.00136182
        CHANNELS 6 Xposition Yposition Zposition Zrotation Xrotation Yrotation
        JOINT SpineFinal_4_JNT
        {
          OFFSET -18.2335 5.20609 0
          CHANNELS 6 Xposition Yposition Zposition Zrotation Xrotation Yrotation
          JOINT SpineFinal_5_JNT
          {
            OFFSET -17.3574 8.01768 -1.82773e-005
            CHANNELS 6 Xposition Yposition Zposition Zrotation Xrotation Yrotation
            JOINT SpineFinal_6_JNT
            {
              OFFSET -19.144 8.35871 0
              CHANNELS 6 Xposition Yposition Zposition Zrotation Xrotation Yrotation
              JOINT SpineFinal_7_JNT
              {
                OFFSET -16.3943 7.24542 0
                CHANNELS 6 Xposition Yposition Zposition Zrotation Xrotation Yrotation
                JOINT SpineFinal_8_JNT
                {
                  OFFSET -19.3877 2.40349 0
                  CHANNELS 6 Xposition Yposition Zposition Zrotation Xrotation Yrotation
                  JOINT head_JNT
                  {
                    OFFSET -13.796 -11.6756 0
                    CHANNELS 6 Xposition Yposition Zposition Zrotation Xrotation Yrotation
                    JOINT l_hornRoot_JNT
                    {
                      OFFSET -15.825 14.8229 15.3879
                      CHANNELS 6 Xposition Yposition Zposition Zrotation Xrotation Yrotation
                      JOINT l_hornMid_JNT
                      {
                        OFFSET 6.55118 0 0
                        CHANNELS 6 Xposition Yposition Zposition Zrotation Xrotation Yrotation
                        JOINT l_hornEnd_JNT
                        {
                          OFFSET 6.73503 0 0
                          CHANNELS 6 Xposition Yposition Zposition Zrotation Xrotation Yrotation
                          End Site
                          {
                            OFFSET 0 0 0
                          }
                        }
                      }
                    }
                    JOINT headJend_JNT
                    {
                      OFFSET 1.34858 -27.5886 0
                      CHANNELS 6 Xposition Yposition Zposition Zrotation Xrotation Yrotation
                      End Site
                      {
                        OFFSET 0 0 0
                      }
                    }
                    JOINT r_hornRoot_JNT
                    {
                      OFFSET -15.825 14.8229 -15.3879
                      CHANNELS 6 Xposition Yposition Zposition Zrotation Xrotation Yrotation
                      JOINT r_hornMid_JNT
                      {
                        OFFSET -2.40814 5.46468 -2.69372
                        CHANNELS 6 Xposition Yposition Zposition Zrotation Xrotation Yrotation
                        JOINT r_hornEnd_JNT
                        {
                          OFFSET -2.40922 6.0083 -1.85921
                          CHANNELS 6 Xposition Yposition Zposition Zrotation Xrotation Yrotation
                          End Site
                          {
                            OFFSET 0 0 0
                          }
                        }
                      }
                    }
                    JOINT m_upLip_JNT
                    {
                      OFFSET 4.72477 -9.87974 0
                      CHANNELS 6 Xposition Yposition Zposition Zrotation Xrotation Yrotation
                      JOINT l_lipUpRoot_JNT
                      {
                        OFFSET 2.68891 -0.690234 4.02874
                        CHANNELS 6 Xposition Yposition Zposition Zrotation Xrotation Yrotation
                        JOINT l_lipUpEnd_JNT
                        {
                          OFFSET 0 0 -14.9226
                          CHANNELS 6 Xposition Yposition Zposition Zrotation Xrotation Yrotation
                          End Site
                          {
                            OFFSET 0 0 0
                          }
                        }
                      }
                      JOINT m_upLipRoot_JNT
                      {
                        OFFSET 0 0 3.94939
                        CHANNELS 6 Xposition Yposition Zposition Zrotation Xrotation Yrotation
                        JOINT m_upLipEnd_JNT
                        {
                          OFFSET 0 0 15.0019
                          CHANNELS 6 Xposition Yposition Zposition Zrotation Xrotation Yrotation
                          End Site
                          {
                            OFFSET 0 0 0
                          }
                        }
                      }
                      JOINT r_lipUpRoot_JNT
                      {
                        OFFSET -2.689 -0.690236 4.02875
                        CHANNELS 6 Xposition Yposition Zposition Zrotation Xrotation Yrotation
                        JOINT r_lipUpEnd_JNT
                        {
                          OFFSET 9.35075e-005 -0.000392738 14.9226
                          CHANNELS 6 Xposition Yposition Zposition Zrotation Xrotation Yrotation
                          End Site
                          {
                            OFFSET 0 0 0
                          }
                        }
                      }
                    }
                    JOINT m_DnLip_JNT
                    {
                      OFFSET 6.0207 -9.81639 0
                      CHANNELS 6 Xposition Yposition Zposition Zrotation Xrotation Yrotation
                      JOINT l_lipDn_JNT
                      {
                        OFFSET 2.71301 -0.162748 3.99146
                        CHANNELS 6 Xposition Yposition Zposition Zrotation Xrotation Yrotation
                        JOINT l_lipEnd_JNT
                        {
                          OFFSET 0 0 -14.9599
                          CHANNELS 6 Xposition Yposition Zposition Zrotation Xrotation Yrotation
                          End Site
                          {
                            OFFSET 0 0 0
                          }
                        }
                      }
                      JOINT m_dnLip_JNT
                      {
                        OFFSET 0 -0.0431035 3.99141
                        CHANNELS 6 Xposition Yposition Zposition Zrotation Xrotation Yrotation
                        JOINT m_dnLipEnd_JNT
                        {
                          OFFSET 0 0 14.9599
                          CHANNELS 6 Xposition Yposition Zposition Zrotation Xrotation Yrotation
                          End Site
                          {
                            OFFSET 0 0 0
                          }
                        }
                      }
                      JOINT r_lipDn_JNT
                      {
                        OFFSET -2.71301 -0.162761 3.99141
                        CHANNELS 6 Xposition Yposition Zposition Zrotation Xrotation Yrotation
                        JOINT r_lipDnEnd_JNT
                        {
                          OFFSET 0 0 14.9599
                          CHANNELS 6 Xposition Yposition Zposition Zrotation Xrotation Yrotation
                          End Site
                          {
                            OFFSET 0 0 0
                          }
                        }
                      }
                    }
                    JOINT l_lid_JNT
                    {
                      OFFSET -7.85698 -6.72885 9.63956
                      CHANNELS 6 Xposition Yposition Zposition Zrotation Xrotation Yrotation
                      End Site
                      {
                        OFFSET 0 0 0
                      }
                    }
                    JOINT r_lid_JNT
                    {
                      OFFSET -7.85684 -6.72882 -9.63956
                      CHANNELS 6 Xposition Yposition Zposition Zrotation Xrotation Yrotation
                      End Site
                      {
                        OFFSET 0 0 0
                      }
                    }
                  }
                }
              }
            }
            JOINT l_FwClavicleRoot_JNT
            {
              OFFSET -0.15532 -4.55898 6.72563
              CHANNELS 6 Xposition Yposition Zposition Zrotation Xrotation Yrotation
              JOINT l_FwLegBlendRoot_JNT
              {
                OFFSET 21.051 0 0
                CHANNELS 6 Xposition Yposition Zposition Zrotation Xrotation Yrotation
                JOINT l_FwLegBlendMiddle_JNT
                {
                  OFFSET 33.1145 0 0
                  CHANNELS 6 Xposition Yposition Zposition Zrotation Xrotation Yrotation
                  JOINT l_FwLegBlendTip_JNT
                  {
                    OFFSET 29.9221 0 0
                    CHANNELS 6 Xposition Yposition Zposition Zrotation Xrotation Yrotation
                    JOINT l_FwLegBlendEnd_JNT
                    {
                      OFFSET 9.62649 0 0
                      CHANNELS 6 Xposition Yposition Zposition Zrotation Xrotation Yrotation
                      End Site
                      {
                        OFFSET 0 0 0
                      }
                    }
                  }
                }
              }
            }
            JOINT r_FwClavicleRoot_JNT
            {
              OFFSET -0.15532 -4.55898 -6.72563
              CHANNELS 6 Xposition Yposition Zposition Zrotation Xrotation Yrotation
              JOINT r_FwLegBlendRoot_JNT
              {
                OFFSET 1.1653 -12.7157 -16.7361
                CHANNELS 6 Xposition Yposition Zposition Zrotation Xrotation Yrotation
                JOINT r_FwLegBlendMiddle_JNT
                {
                  OFFSET 16.2308 -5.97551 28.2387
                  CHANNELS 6 Xposition Yposition Zposition Zrotation Xrotation Yrotation
                  JOINT r_FwLegBlendTip_JNT
                  {
                    OFFSET 26.7017 -9.19239 -9.89204
                    CHANNELS 6 Xposition Yposition Zposition Zrotation Xrotation Yrotation
                    JOINT r_FwLegBlendEnd_JNT
                    {
                      OFFSET 4.44874 -7.74942 3.58114
                      CHANNELS 6 Xposition Yposition Zposition Zrotation Xrotation Yrotation
                      End Site
                      {
                        OFFSET 0 0 0
                      }
                    }
                  }
                }
              }
            }
          }
        }
      }
    }
    JOINT r_legIKClavicle_Root_JNT
    {
      OFFSET -0.323145 -1.55994 -9.59625
      CHANNELS 6 Xposition Yposition Zposition Zrotation Xrotation Yrotation
      JOINT r_legBlendRoot_JNT
      {
        OFFSET 13.2848 -5.74129 -7.13912
        CHANNELS 6 Xposition Yposition Zposition Zrotation Xrotation Yrotation
        JOINT r_legBlendMiddle_JNT
        {
          OFFSET 14.815 16.9375 15.0957
          CHANNELS 6 Xposition Yposition Zposition Zrotation Xrotation Yrotation
          JOINT r_legBlendEnd_JNT
          {
            OFFSET 23.6904 -6.58016 -3.54465
            CHANNELS 6 Xposition Yposition Zposition Zrotation Xrotation Yrotation
            JOINT r_legBlendTip_JNT
            {
              OFFSET 1.47758 -6.16068 -2.41079
              CHANNELS 6 Xposition Yposition Zposition Zrotation Xrotation Yrotation
              End Site
              {
                OFFSET 0 0 0
              }
            }
          }
        }
      }
    }
    JOINT tailRoot_JNT
    {
      OFFSET 2.82533 14.5514 0
      CHANNELS 6 Xposition Yposition Zposition Zrotation Xrotation Yrotation
      JOINT tailMid_JNT
      {
        OFFSET 7.87756 0 0
        CHANNELS 6 Xposition Yposition Zposition Zrotation Xrotation Yrotation
        JOINT tailEnd_JNT
        {
          OFFSET 6.52588 0 0
          CHANNELS 6 Xposition Yposition Zposition Zrotation Xrotation Yrotation
          End Site
          {
            OFFSET 0 0 0
          }
        }
      }
    }
    JOINT l_shoulderBkRoot_JNT
    {
      OFFSET -9.30511 7.998 11.2048
      CHANNELS 6 Xposition Yposition Zposition Zrotation Xrotation Yrotation
      JOINT l_shoulderBkMid_JNT
      {
        OFFSET 0 0 0
        CHANNELS 6 Xposition Yposition Zposition Zrotation Xrotation Yrotation
        End Site
        {
          OFFSET 0 0 0
        }
      }
    }
    JOINT r_shoulderBkRoot_JNT
    {
      OFFSET -9.30514 7.99801 -11.2048
      CHANNELS 6 Xposition Yposition Zposition Zrotation Xrotation Yrotation
      JOINT r_shoulderBkMid_JNT
      {
        OFFSET 0 0 0
        CHANNELS 6 Xposition Yposition Zposition Zrotation Xrotation Yrotation
        End Site
        {
          OFFSET 0 0 0
        }
      }
    }
  }
}
MOTION
Frames:	3
Frame Time:	0.0416667
0 0 0 0 0 -0 1.09941 64.8999 -42.9966 -30.8675 8.24986 79.9912 -2.64853 -0.810668 10.7015 -67.0116 41.9517 -42.2531 16.1374 -1.47007e-006 1.27033e-006 1.35525 35.4967 65.2221 27.0969 5.32907e-015 -2.84217e-014 8.52424e-015 2.78299e-015 -63.6344 24.8414 8.88178e-015 1.42109e-014 1.38128 -4.50863 -55.8107 6.77858 -7.10543e-015 -1.06581e-014 -0 -4.7394e-022 -0 -19.9504 -2.39579 1.56262 8.08905 -11.3479 8.45757 -19.1257 3.84206 1.81853 -14.4207 -5.71558 11.6466 -19.0921 6.13474 0.837274 -17.2311 -5.61445 1.53932 -18.1316 7.27741 -1.21359 -5.74391 -2.57418 8.16548 -19.144 8.35871 -3.90799e-014 -7.07425 -4.77083e-015 10.557 -16.3943 7.24542 7.10543e-015 -8.05289 3.87297 10.5815 -19.3877 2.40349 -7.10543e-014 4.88751 12.1377 10.9245 -13.796 -11.6756 2.84217e-014 -0.112643 12.6855 0.512937 -15.825 14.8229 15.3879 112.717 -2.35881 -24.301 6.55118 1.7053e-013 0 6.46176e-010 -7.59931 0.217115 6.73503 2.84217e-014 -4.26326e-014 6.36111e-015 -2.13694e-015 -2.65874e-015 1.34858 -27.5886 -2.84217e-014 92.7985 1.43125e-014 -9.54166e-015 -15.825 14.8229 -15.3879 6.36111e-015 -9.54166e-015 1.59028e-014 -2.40814 5.46468 -2.69372 -35.8916 -1.6509 -12.1103 -2.40922 6.0083 -1.85921 4.30356e-031 3.18055e-015 -7.7526e-015 4.72477 -9.87974 2.84217e-014 92.7985 3.50417e-015 -90 2.68891 -0.690234 4.02874 -180 7.01671e-015 180 -1.42109e-014 0 -14.9226 -3.18055e-015 6.36111e-015 -3.18055e-015 0 0 3.94939 3.18055e-015 6.36111e-015 3.18055e-015 0 0 15.0019 -3.53113e-031 3.18055e-015 6.36111e-015 -2.689 -0.690236 4.02875 3.18055e-015 6.36111e-015 3.18055e-015 9.35075e-005 -0.000392738 14.9226 -3.53113e-031 3.18055e-015 6.36111e-015 6.0207 -9.81639 2.84217e-014 92.7985 3.50417e-015 -90 2.71301 -0.162748 3.99146 -180 7.01671e-015 180 -1.42109e-014 0 -14.9599 -3.18055e-015 6.36111e-015 -3.18055e-015 -1.42109e-014 -0.0431035 3.99141 3.18055e-015 6.36111e-015 3.18055e-015 0 0 14.9599 -3.53113e-031 3.18055e-015 6.36111e-015 -2.71301 -0.162761 3.99141 3.18055e-015 6.36111e-015 3.18055e-015 1.42109e-014 0 14.9599 -3.53113e-031 3.18055e-015 6.36111e-015 -7.85698 -6.72885 9.63956 34.106 19.9417 85.9622 -7.85684 -6.72882 -9.63956 -145.894 19.9417 85.9622 -3.21476 -4.3187 6.08742 38.3335 12.8957 -129.785 21.051 -6.93698e-008 -5.09533e-008 71.2601 -58.8224 140.219 33.1145 8.3753e-007 -2.8019e-007 136.874 7.01671e-015 180 29.9221 1.42109e-014 -3.55271e-014 39.2169 3.72975 -1.61616 9.62649 2.13163e-014 7.10543e-015 29.859 -1.7467e-015 90 1.57499 -4.64749 -6.47788 -38.1326 21.9366 -35.3912 1.1653 -12.7157 -16.7361 72.6511 -56.9148 137.709 16.2308 -5.97551 28.2387 140.821 1.07939 176.863 26.7017 -9.19239 -9.89204 43.8668 3.26852 -2.48012 4.44874 -7.74942 3.58114 29.859 -1.7467e-015 90 -4.94604 1.23737 -11.8565 -98.4435 -10.6697 27.4577 13.2848 -5.74129 -7.13912 36.8181 -1.65869 30.9574 14.815 16.9375 15.0957 -45.1394 35.839 -38.7377 23.6904 -6.58016 -3.54465 26.7666 -3.4456 -55.2811 1.47758 -6.16068 -2.41079 7.95139e-016 -1.59028e-015 6.26172e-015 2.82533 14.5514 7.10543e-015 4.99157 -5.1684e-015 -11.6223 7.87756 0 0 19.1217 1.59028e-015 -12.196 6.52588 1.42109e-014 1.42109e-014 -17.7087 5.70438 -17.2906 -9.30511 7.998 11.2048 -6.8505 -1.93597e-015 -90 -3.55271e-015 2.004 0 1.2921e-015 1.78906e-015 -3.18055e-015 -9.30514 7.99801 -11.2048 173.149 1.93597e-015 -90 0 -3.9713 0 2.23633e-015 5.96354e-016 1.59028e-015 
0 0 0 0 0 -0 1.09941 64.8922 -42.9966 -30.866 8.24926 79.9908 -2.64853 -0.810668 10.7015 -67.0116 41.9517 -42.2531 16.1374 -1.47006e-006 1.27034e-006 1.35235 35.4959 65.2409 27.0969 1.24345e-014 -4.26326e-014 4.85487e-015 1.98785e-015 -63.659 24.8414 7.10543e-015 0 1.38274 -4.50789 -55.8026 6.77858 -5.32907e-015 -1.06581e-014 -0 -1.89576e-022 -0 -19.9494 -2.37201 1.54778 8.0148 -11.361 8.41682 -19.1288 3.82178 1.82583 -14.3226 -5.71398 11.6804 -19.0887 6.12994 0.838552 -17.2345 -5.61072 1.54046 -18.1262 7.2836 -1.21463 -5.77165 -2.57226 8.16058 -19.144 8.35871 -3.90799e-014 -7.07425 -1.59028e-015 10.557 -16.3943 7.24542 7.10543e-015 -8.05289 3.87297 10.5815 -19.3877 2.40349 -4.26326e-014 4.88138 12.1462 10.9249 -13.796 -11.6756 -1.42109e-014 -0.112729 12.6948 0.512955 -15.825 14.8229 15.3879 112.717 -2.35881 -24.301 6.55118 1.56319e-013 0 6.46194e-010 -7.59931 0.217115 6.73503 4.26326e-014 -4.26326e-014 4.04321e-032 6.95746e-016 -3.32964e-015 1.34858 -27.5886 -1.42109e-014 92.7985 1.90833e-014 -1.27222e-014 -15.825 14.8229 -15.3879 -2.54444e-014 0 6.36111e-015 -2.40814 5.46468 -2.69372 -35.8916 -1.6509 -12.1103 -2.40922 6.0083 -1.85921 -0 0 5.1684e-015 4.72477 -9.87974 1.42109e-014 92.7985 3.50417e-015 -90 2.68891 -0.690234 4.02874 180 7.01671e-015 180 0 0 -14.9226 -1.59028e-015 3.18055e-015 -0 -1.42109e-014 -1.42109e-014 3.94939 -7.95139e-015 3.18055e-015 1.27222e-014 0 -1.42109e-014 15.0019 1.59028e-015 0 -0 -2.689 -0.690236 4.02875 -7.95139e-015 3.18055e-015 1.27222e-014 9.35075e-005 -0.000392738 14.9226 1.59028e-015 0 -0 6.0207 -9.81639 1.42109e-014 92.7985 3.50417e-015 -90 2.71301 -0.162748 3.99146 180 7.01671e-015 180 0 0 -14.9599 -1.59028e-015 3.18055e-015 -0 0 -0.0431035 3.99141 -7.95139e-015 3.18055e-015 1.27222e-014 1.42109e-014 -1.42109e-014 14.9599 1.59028e-015 0 -0 -2.71301 -0.162761 3.99141 -7.95139e-015 3.18055e-015 1.27222e-014 0 0 14.9599 1.59028e-015 0 -0 -7.85698 -6.72885 9.63956 34.106 19.9417 85.9622 -7.85684 -6.72882 -9.63956 -145.894 19.9417 85.9622 -3.21476 -4.3187 6.08742 38.3335 12.8957 -129.785 21.051 -6.92994e-008 -5.05812e-008 71.2739 -58.8283 140.231 33.1145 8.3753e-007 -2.8019e-007 136.894 7.01671e-015 180 29.9221 -2.13163e-014 -1.06581e-014 39.2271 3.72959 -1.61621 9.62649 2.13163e-014 1.06581e-014 29.859 -1.7467e-015 90 1.57499 -4.64749 -6.47788 -38.1327 21.9366 -35.3912 1.1653 -12.7157 -16.7361 72.6471 -56.9175 137.714 16.2308 -5.97551 28.2387 140.821 1.07301 176.881 26.7017 -9.19239 -9.89204 43.8668 3.25925 -2.4846 4.44874 -7.74942 3.58114 29.859 -1.7467e-015 90 -4.94604 1.23737 -11.8565 -98.4435 -10.6697 27.4577 13.2848 -5.74129 -7.13912 36.8491 -1.66577 30.9669 14.815 16.9375 15.0957 -45.1376 35.8382 -38.7387 23.6904 -6.58016 -3.54465 26.7327 -3.44717 -55.2852 1.47758 -6.16068 -2.41079 -7.95139e-016 0 -2.38542e-015 2.82533 14.5514 -7.10543e-015 4.99157 -7.55382e-015 -11.6223 7.87756 0 -7.10543e-015 19.1217 -3.18055e-015 -12.196 6.52588 2.84217e-014 7.10543e-015 -17.7087 5.70438 -17.2906 -9.30511 7.998 11.2048 -6.8505 -1.93597e-015 -90 0 2.004 0 -2.93207e-015 -9.93923e-016 -1.59028e-015 -9.30514 7.99801 -11.2048 173.149 4.18474e-016 -90 7.10543e-015 -3.9713 3.55271e-015 4.91992e-015 1.19271e-015 1.59028e-015 
0 0 0 0 0 -0 1.09941 64.884 -42.9966 -30.8625 8.24796 79.9898 -2.64853 -0.810668 10.7015 -67.0116 41.9517 -42.2531 16.1374 -1.47005e-006 1.27035e-006 1.34598 35.4943 65.2821 27.0969 1.06581e-014 -3.55271e-014 2.35854e-015 1.19271e-015 -63.7131 24.8414 -6.21725e-015 0 1.38593 -4.50627 -55.7846 6.77858 -7.10543e-015 -1.42109e-014 3.79152e-022 -1.89576e-022 -3.18055e-015 -19.9484 -2.34578 1.53142 7.93281 -11.3754 8.37183 -19.1323 3.7993 1.83392 -14.0847 -5.7095 11.7623 -19.0849 6.12455 0.839989 -17.2428 -5.6014 1.54333 -18.1201 7.29056 -1.2158 -5.84081 -2.56745 8.14837 -19.144 8.35871 -3.55271e-014 -7.07425 -4.77083e-015 10.557 -16.3943 7.24542 7.10543e-015 -8.05289 3.87297 10.5815 -19.3877 2.40349 -6.39488e-014 4.8799 12.1549 10.9253 -13.796 -11.6756 1.42109e-014 -0.11279 12.7014 0.512969 -15.825 14.8229 15.3879 112.717 -2.35881 -24.301 6.55118 1.7053e-013 4.26326e-014 6.46188e-010 -7.59931 0.217115 6.73503 2.84217e-014 -7.10543e-014 -6.36111e-015 3.10601e-015 4.22417e-016 1.34858 -27.5886 -1.42109e-014 92.7985 1.27222e-014 -3.18055e-015 -15.825 14.8229 -15.3879 1.59028e-014 -3.18055e-014 1.11319e-014 -2.40814 5.46468 -2.69372 -35.8916 -1.6509 -12.1103 -2.40922 6.0083 -1.85921 -4.08286e-031 3.18055e-015 7.35503e-015 4.72477 -9.87974 -4.26326e-014 92.7985 3.50417e-015 -90 2.68891 -0.690234 4.02874 180 7.01671e-015 -180 -1.42109e-014 0 -14.9226 -4.77083e-015 3.18055e-015 3.18055e-015 2.84217e-014 0 3.94939 3.53113e-031 6.36111e-015 -3.18055e-015 0 0 15.0019 -1.59028e-015 6.36111e-015 -3.18055e-015 -2.689 -0.690236 4.02875 3.53113e-031 6.36111e-015 -3.18055e-015 9.35075e-005 -0.000392738 14.9226 -1.59028e-015 6.36111e-015 -3.18055e-015 6.0207 -9.81639 -4.26326e-014 92.7985 3.50417e-015 -90 2.71301 -0.162748 3.99146 180 7.01671e-015 -180 0 1.42109e-014 -14.9599 -4.77083e-015 3.18055e-015 3.18055e-015 0 -0.0431035 3.99141 3.53113e-031 6.36111e-015 -3.18055e-015 -1.42109e-014 0 14.9599 -1.59028e-015 6.36111e-015 -3.18055e-015 -2.71301 -0.162761 3.99141 3.53113e-031 6.36111e-015 -3.18055e-015 0 0 14.9599 -1.59028e-015 6.36111e-015 -3.18055e-015 -7.85698 -6.72885 9.63956 34.106 19.9417 85.9622 -7.85684 -6.72882 -9.63956 -145.894 19.9417 85.9622 -3.21476 -4.3187 6.08742 38.3335 12.8957 -129.785 21.051 -6.92251e-008 -5.0189e-008 71.3041 -58.8412 140.256 33.1145 8.3753e-007 -2.8019e-007 136.936 7.01671e-015 180 29.9221 -1.42109e-014 -7.10543e-015 39.2493 3.72924 -1.6163 9.62649 2.13163e-014 7.10543e-015 29.859 -1.7467e-015 90 1.57499 -4.64749 -6.47788 -38.1327 21.9366 -35.3912 1.1653 -12.7157 -16.7361 72.6383 -56.9234 137.726 16.2308 -5.97551 28.2387 140.82 1.05905 176.922 26.7017 -9.19239 -9.89204 43.867 3.23898 -2.49439 4.44874 -7.74942 3.58114 29.859 -8.08068e-015 90 -4.94604 1.23737 -11.8565 -98.4435 -10.6697 27.4577 13.2848 -5.74129 -7.13912 36.8899 -1.67043 30.9902 14.815 16.9375 15.0957 -45.1574 35.8475 -38.7271 23.6904 -6.58016 -3.54465 26.7087 -3.44548 -55.3023 1.47758 -6.16068 -2.41079 8.27607e-033 1.59028e-015 -2.98177e-016 2.82533 14.5514 -7.10543e-015 4.99157 -3.97569e-015 -11.6223 7.87756 1.42109e-014 -2.13163e-014 19.1217 4.77083e-015 -12.196 6.52588 -7.10543e-015 2.13163e-014 -17.7087 5.70438 -17.2906 -9.30511 7.998 11.2048 -6.8505 -4.18474e-016 -90 -3.55271e-015 2.004 0 2.03754e-015 1.98785e-016 -0 -9.30514 7.99801 -11.2048 173.149 4.18474e-016 -90 0 -3.9713 -7.10543e-015 1.14301e-015 0 -0 
